<svg width="27" height="27" viewBox="0 0 27 27" fill="none" xmlns="http://www.w3.org/2000/svg">
<path d="M13.4999 26.8337C10.8627 26.8337 8.28471 26.0517 6.09197 24.5865C3.89924 23.1214 2.19021 21.0389 1.181 18.6025C0.171793 16.1661 -0.0922614 13.4851 0.422227 10.8986C0.936716 8.31204 2.20664 5.93618 4.07141 4.07141C5.93618 2.20664 8.31204 0.936716 10.8986 0.422227C13.4851 -0.0922614 16.1661 0.171793 18.6025 1.181C21.0389 2.19021 23.1214 3.89924 24.5865 6.09197C26.0517 8.28471 26.8337 10.8627 26.8337 13.4999C26.8337 17.0362 25.4289 20.4277 22.9283 22.9283C20.4277 25.4289 17.0362 26.8337 13.4999 26.8337ZM13.4999 1.94387C11.2143 1.94387 8.98006 2.62161 7.07969 3.8914C5.17932 5.16119 3.69816 6.96599 2.82351 9.07757C1.94887 11.1891 1.72002 13.5127 2.16591 15.7543C2.6118 17.996 3.7124 20.055 5.32854 21.6712C6.94467 23.2873 9.00375 24.3879 11.2454 24.8338C13.487 25.2797 15.8106 25.0508 17.9221 24.1762C20.0337 23.3015 21.8385 21.8204 23.1083 19.92C24.3781 18.0196 25.0558 15.7854 25.0558 13.4999C25.0558 10.435 23.8383 7.4957 21.6712 5.32854C19.504 3.16137 16.5647 1.94387 13.4999 1.94387Z" fill="#101820"/>
<path d="M17.2688 18.5311L12.8686 14.1309C12.7863 14.0479 12.7211 13.9494 12.6768 13.8411C12.6326 13.7328 12.6102 13.6168 12.6109 13.4998V6.38843H14.3887V13.1353L18.5311 17.2688L17.2688 18.5311Z" fill="#101820"/>
</svg>
